<?xml version="1.0" standalone="no"?>
<!DOCTYPE svg PUBLIC "-//W3C//DTD SVG 20010904//EN"
 "http://www.w3.org/TR/2001/REC-SVG-20010904/DTD/svg10.dtd">
<svg version="1.0" xmlns="http://www.w3.org/2000/svg"
 width="512.000000pt" height="512.000000pt" viewBox="0 0 512.000000 512.000000"
 preserveAspectRatio="xMidYMid meet">
<metadata>
Created by potrace 1.14, written by Peter Selinger 2001-2017
</metadata>
<g transform="translate(0.000000,512.000000) scale(0.100000,-0.100000)"
fill="#000000" stroke="none">
<path d="M2502 4987 c-40 -21 -77 -81 -181 -291 -509 -1029 -607 -1225 -616
-1225 -11 0 -100 -12 -129 -17 -10 -2 -44 -6 -75 -9 -31 -4 -63 -8 -71 -10 -8
-3 -62 -11 -120 -19 -58 -8 -118 -17 -135 -20 -16 -3 -82 -12 -145 -21 -63 -8
-126 -17 -140 -20 -14 -2 -76 -11 -138 -20 -62 -9 -121 -18 -130 -20 -10 -2
-45 -6 -77 -10 -33 -4 -69 -9 -80 -11 -11 -2 -40 -6 -65 -9 -25 -3 -56 -8 -70
-10 -64 -11 -97 -17 -125 -20 -67 -7 -126 -29 -162 -59 -32 -28 -37 -39 -39
-79 -3 -62 33 -117 146 -227 256 -249 608 -591 705 -685 61 -59 162 -158 226
-221 l115 -114 -17 -97 c-9 -54 -20 -114 -23 -133 -3 -19 -23 -138 -45 -265
-22 -126 -42 -248 -45 -270 -4 -22 -8 -47 -11 -55 -2 -8 -6 -32 -9 -52 -3 -21
-9 -55 -12 -75 -3 -21 -7 -45 -9 -53 -3 -8 -7 -33 -10 -55 -6 -39 -30 -175
-39 -225 -3 -14 -10 -54 -16 -90 -5 -36 -12 -76 -15 -90 -4 -14 -9 -60 -12
-103 -7 -91 11 -143 59 -171 59 -35 127 -15 358 109 58 31 188 99 290 152 102
53 190 99 195 103 6 4 71 39 145 77 169 89 301 157 457 240 l123 64 147 -77
c82 -42 175 -91 208 -109 33 -18 119 -63 190 -100 72 -37 162 -85 200 -105 39
-20 138 -72 220 -115 83 -44 195 -103 250 -132 269 -145 332 -155 388 -66 34
55 33 112 -8 349 -20 114 -38 220 -40 236 -2 15 -8 51 -14 80 -6 29 -13 67
-15 83 -3 17 -14 84 -26 150 -11 66 -23 136 -26 155 -3 19 -18 107 -34 195
-16 88 -31 180 -35 205 -3 25 -8 52 -10 60 -2 8 -6 31 -9 50 -3 19 -9 56 -14
82 l-9 47 136 135 c75 74 172 169 217 213 191 185 749 730 771 753 42 44 64
88 68 137 4 44 1 50 -35 84 -37 35 -75 50 -170 64 -19 3 -46 7 -60 10 -14 3
-47 7 -75 10 -27 4 -57 8 -65 10 -8 2 -33 6 -55 9 -22 3 -119 17 -215 31 -96
14 -191 27 -210 30 -19 3 -46 7 -60 10 -14 2 -45 7 -70 10 -25 3 -56 7 -70 9
-14 3 -47 7 -75 11 -27 3 -57 8 -65 10 -8 2 -37 6 -65 10 -27 3 -77 10 -110
15 -33 5 -78 12 -100 14 -50 7 -118 16 -170 25 l-40 6 -170 342 c-93 188 -253
510 -354 715 -102 205 -195 387 -208 405 -41 54 -118 77 -171 50z"/>
</g>
</svg>
